/* XPM */
static char * xmonad_xpm[] = {
"50 50 148 2",
"  	c None",
". 	c #F3F3F3",
"+ 	c #FEFEFE",
"@ 	c #FDFDFD",
"# 	c #F6F6F6",
"$ 	c #EDEDED",
"% 	c #FBFBFB",
"& 	c #F7F7F7",
"* 	c #EFEFEF",
"= 	c #EEEEEE",
"- 	c #F0F0F0",
"; 	c #F8F8F8",
"> 	c #FFFFFF",
", 	c #F9F9F9",
"' 	c #F2F2F2",
") 	c #FCFCFC",
"! 	c #B0B0B0",
"~ 	c #A1A1A1",
"{ 	c #A0A0A0",
"] 	c #CECECE",
"^ 	c #C6C6C6",
"/ 	c #BABABA",
"( 	c #DCDCDC",
"_ 	c #FAFAFA",
": 	c #F4F4F4",
"< 	c #BCBCBC",
"[ 	c #6F6F6F",
"} 	c #616161",
"| 	c #626262",
"1 	c #606060",
"2 	c #939393",
"3 	c #D9D9D9",
"4 	c #CDCDCD",
"5 	c #9B9B9B",
"6 	c #979797",
"7 	c #B1B1B1",
"8 	c #E5E5E5",
"9 	c #EAEAEA",
"0 	c #9E9E9E",
"a 	c #6E6E6E",
"b 	c #666666",
"c 	c #676767",
"d 	c #6C6C6C",
"e 	c #ACACAC",
"f 	c #EBEBEB",
"g 	c #999999",
"h 	c #9A9A9A",
"i 	c #C5C5C5",
"j 	c #F1F1F1",
"k 	c #D5D5D5",
"l 	c #888888",
"m 	c #686868",
"n 	c #656565",
"o 	c #7F7F7F",
"p 	c #C3C3C3",
"q 	c #E0E0E0",
"r 	c #A8A8A8",
"s 	c #A4A4A4",
"t 	c #B8B8B8",
"u 	c #787878",
"v 	c #646464",
"w 	c #929292",
"x 	c #CBCBCB",
"y 	c #989898",
"z 	c #B4B4B4",
"A 	c #E3E3E3",
"B 	c #E7E7E7",
"C 	c #E9E9E9",
"D 	c #A6A6A6",
"E 	c #B6B6B6",
"F 	c #9C9C9C",
"G 	c #C2C2C2",
"H 	c #D1D1D1",
"I 	c #8D8D8D",
"J 	c #DEDEDE",
"K 	c #ABABAB",
"L 	c #D2D2D2",
"M 	c #B9B9B9",
"N 	c #767676",
"O 	c #8C8C8C",
"P 	c #DFDFDF",
"Q 	c #C8C8C8",
"R 	c #A2A2A2",
"S 	c #B3B3B3",
"T 	c #E4E4E4",
"U 	c #F5F5F5",
"V 	c #E8E8E8",
"W 	c #A5A5A5",
"X 	c #707070",
"Y 	c #A3A3A3",
"Z 	c #B7B7B7",
"` 	c #9D9D9D",
" .	c #BEBEBE",
"..	c #A7A7A7",
"+.	c #858585",
"@.	c #808080",
"#.	c #818181",
"$.	c #828282",
"%.	c #7B7B7B",
"&.	c #ADADAD",
"*.	c #D3D3D3",
"=.	c #C0C0C0",
"-.	c #BFBFBF",
";.	c #717171",
">.	c #6A6A6A",
",.	c #8A8A8A",
"'.	c #CACACA",
").	c #B5B5B5",
"!.	c #777777",
"~.	c #C1C1C1",
"{.	c #ECECEC",
"].	c #A9A9A9",
"^.	c #BBBBBB",
"/.	c #636363",
"(.	c #D6D6D6",
"_.	c #8B8B8B",
":.	c #C7C7C7",
"<.	c #D4D4D4",
"[.	c #E1E1E1",
"}.	c #AAAAAA",
"|.	c #AEAEAE",
"1.	c #D7D7D7",
"2.	c #747474",
"3.	c #AFAFAF",
"4.	c #6B6B6B",
"5.	c #BDBDBD",
"6.	c #D8D8D8",
"7.	c #D0D0D0",
"8.	c #737373",
"9.	c #DDDDDD",
"0.	c #8F8F8F",
"a.	c #7A7A7A",
"b.	c #E2E2E2",
"c.	c #C9C9C9",
"d.	c #B2B2B2",
"e.	c #CCCCCC",
"f.	c #9F9F9F",
"g.	c #7E7E7E",
"h.	c #6D6D6D",
"i.	c #797979",
"j.	c #909090",
"k.	c #DADADA",
"l.	c #898989",
"m.	c #7D7D7D",
"n.	c #919191",
"o.	c #CFCFCF",
"p.	c #969696",
"q.	c #C4C4C4",
"                                                                                                    ",
"                                                                                                    ",
"                                                                                                    ",
"                                                                                                    ",
"                                                                                                    ",
"                                                                                                    ",
"                                                                                                    ",
"                                                                                                    ",
"                                                                                                    ",
"                                                                                                    ",
"        . + + + @ @ @ @ @ @ + + + @ @ @ @ @ @ + #                                                   ",
"        $ % + & * = = = = - ; > , ' ' ' ' ' . % )                                                   ",
"          - @ = ! ~ { { { { ] & * ^ / / / / / ( & _                                                 ",
"            # : < [ } | | 1 2 3 : 4 5 6 6 6 6 7 8 ) ;                                               ",
"              , 9 0 a b c c d e f $ / 5 g g g h i - @                                               ",
"              j _ k l m c c n o p : q r h g g g s k , _                                             ",
"                ; & t u n c c v w ( # x { g g g y z A ) &                                           ",
"                B _ C { d b c b a D = = E F g g g h G ' @                                           ",
"                  . % H I b c c b o G : J K g g g y D L % + @ ) ) ) ) ) ) ) ) ) ) ) ) ) ) ) @ #     ",
"                    , & M N b c c m O P # Q R g g g g S T @ , = f f f f f f f f f f f f f U @ ;     ",
"                    C _ V W b c c b X Y * = Z h g g g `  .. - ..+.@.@.@.@.@.@.@.@.#.#.#.$.Q U ;     ",
"                      : _ L I b c c m %.i . ( &.y g g g D H U *.$.v n n n n n n n b b b c =.. ,     ",
"                        , U -.;.c c c >.,.q : '.~ y g g h ! 8 j ).!.n b b b b b b c c c m ~.: ,     ",
"                        {._ B ..v c c c d ].= {.^.y g g g 0  .' B h b | /./././././././.v =.. ,     ",
"                          . ; (._.c c c c N :.' ( &.y g g g Y <.# [.*.L L L L L L L L L L V _ ;     ",
"                          j @ B Y m c c b m }.{.{.< 6 g g g 5 |.B @ > > > > > > > > > > > > > &     ",
"                          ; _ 1.I c c c c 2.i ' J 3.y g g g g F p j @ B <.*.*.L L *.*.*.*.V % ;     ",
"                          @ V ].v c c c 4.D {.$ 5.y g g g g g g { 6.# 7.l v n v v n n n b ~.: ,     ",
"                        ) # =.8.c c c >.l 9.: x R y g g g g g g h ! 8 - ^.;.b b b c c c m ~.: ,     ",
"                      , % <.0.b c c c a.G . J |.y g g g h g g g g h ^ - b.~ c n n b b b c =.. ,     ",
"                      ) 9 ..c c c b [ ~ = * t h g g g 0 ..Y h g g g { (.# <._.o o o o o @.:.U ;     ",
"                    ) ; ^.u b c c c ,.9.U c.R g g g y d.6.e.f.g g g g d.b.& 9 8 8 8 8 8 8 ' ) ;     ",
"                  ; ) <.0.c c c b g.-.: P K h g g y W 7., = E F g g g 5 i * @ % _ _ _ _ _ ) @ #     ",
"                  ) f ~ d b c b h.s $ - Z F g g g h ~.j + % [.D g g g y s *.% _ b.                  ",
"                % ; ^.i.n c c /.j.k.U 4 { g g g y S b._ . # # '.~ y g g y S b.) j                   ",
"              & % 1.l.m c c n m.=.. [.].h g g g Y *.& &   V _ = Z F g g g ` ~.j )                   ",
"              % {.{ [ b c c 4.}.C = ^.5 g g g g p * _       ' % 9.}.y g g y D L _ ,                 ",
"            _ : -.X | /./.1 n.6.: o.5 6 6 6 6 3.A _ j         ; & c.~ p.6 6 6 |.T ) U               ",
"          & @ $ |.` F F F F x # = q.Z Z Z Z t k.# U           9 _ f :.E Z Z Z ^.<.% )               ",
"          @ @ U 9 C C C C f # + ; = = = = = = , ,               : ) . $ = = = $ - ) > ,             ",
"        : % % % % _ _ _ _ % % % % % % % _ _ _ _ $                 & _ _ _ _ _ _ _ % % %             ",
"                                                                                                    ",
"                                                                                                    ",
"                                                                                                    ",
"                                                                                                    ",
"                                                                                                    ",
"                                                                                                    ",
"                                                                                                    ",
"                                                                                                    ",
"                                                                                                    "};
